<svg
  id="svgId"
  viewBox="0 0 650 850"
  xmlns="http://www.w3.org/2000/svg">
  <path
    d="M 50,850 A 50,50 0 0 1 0,800 c 0,-0.076 0,-0.151 0.006,-0.227 H 0 V 0 H 400 V 150.005 A 100,100 0 0 0 500,250 H 650 V 850 Z M 450,150 V 0 L 650,200 H 494.443 C 469.9,200 450,177.617 450,150 Z M 225,550 224.912,364.937 A 40.072,40.072 0 0 1 264.882,325 h 120.236 a 40.072,40.072 0 0 1 39.97,39.937 L 425,550 H 552 L 361.666,735.549 v 0 A 53.521,53.521 0 0 1 325,750 v 0 a 51.077,51.077 0 0 1 -35.665,-14.453 v 0 L 98,550 Z"
    style="fill-rule:evenodd;"/>
</svg>
